<svg xmlns="http://www.w3.org/2000/svg" viewBox="0 0 960 980" role="img" aria-label="SCR-006 稼働カレンダー PC"><title>SCR-006 稼働カレンダー PC</title><rect width="100%" height="100%" fill="white"/><g font-family="Yu Gothic UI, Meiryo, Hiragino Sans, Noto Sans JP, Segoe UI, sans-serif" font-size="12" fill="#1F2937"><rect x="0" y="0" width="960" height="54" rx="4" fill="#E5E7EB" stroke="#9CA3AF"/><g data-item="1"><rect x="10" y="16" width="22" height="22" rx="7" fill="#C2410C"/><text x="21" y="31" text-anchor="middle" fill="white" font-weight="bold">1</text></g><text x="42" y="32" font-size="12">PMAI　ダッシュボード　製造指示一覧　製品マスタ　生産ライン・工程　稼働カレンダー　ログアウト</text><g data-item="2"><rect x="10" y="80" width="22" height="22" rx="7" fill="#C2410C"/><text x="21" y="95" text-anchor="middle" fill="white" font-weight="bold">2</text></g><text x="40" y="100" font-size="22">稼働カレンダー</text><rect x="40" y="123" width="880" height="85" rx="4" fill="#F3F4F6" stroke="#9CA3AF"/><g data-item="3"><rect x="10" y="135" width="22" height="22" rx="7" fill="#C2410C"/><text x="21" y="150" text-anchor="middle" fill="white" font-weight="bold">3</text></g><text x="55" y="147" font-size="12">表示月</text><rect x="55" y="157" width="145" height="34" rx="4" fill="#FFFFFF" stroke="#9CA3AF"/><text x="64" y="179" font-size="12">2026年10月</text><rect x="212" y="157" width="70" height="34" rx="4" fill="#FFFFFF" stroke="#9CA3AF"/><text x="221" y="179" font-size="12">前の月</text><rect x="292" y="157" width="70" height="34" rx="4" fill="#FFFFFF" stroke="#9CA3AF"/><text x="301" y="179" font-size="12">次の月</text><text x="405" y="147" font-size="12">対象ライン</text><rect x="405" y="157" width="295" height="34" rx="4" fill="#FFFFFF" stroke="#9CA3AF"/><text x="414" y="179" font-size="12">L-001 — 第1ライン</text><rect x="715" y="157" width="185" height="34" rx="4" fill="#FFFFFF" stroke="#9CA3AF"/><text x="724" y="179" font-size="12">表示を更新</text><g data-item="4"><rect x="10" y="221" width="22" height="22" rx="7" fill="#C2410C"/><text x="21" y="236" text-anchor="middle" fill="white" font-weight="bold">4</text></g><text x="40" y="238" font-size="12">表示：稼働 ／ 休み ／ 設定なし　・　工場日付：2026-10-01（Asia/Tokyo）</text><rect x="40" y="267" width="560" height="383" rx="4" fill="#FFFFFF" stroke="#9CA3AF"/><g data-item="5"><rect x="10" y="278" width="22" height="22" rx="7" fill="#C2410C"/><text x="21" y="293" text-anchor="middle" fill="white" font-weight="bold">5</text></g><text x="69" y="291" font-size="12">月</text><text x="149" y="291" font-size="12">火</text><text x="229" y="291" font-size="12">水</text><text x="309" y="291" font-size="12">木</text><text x="389" y="291" font-size="12">金</text><text x="469" y="291" font-size="12">土</text><text x="549" y="291" font-size="12">日</text><rect x="40" y="306" width="80" height="63" rx="4" fill="#FFFFFF" stroke="#9CA3AF"/><rect x="120" y="306" width="80" height="63" rx="4" fill="#FFFFFF" stroke="#9CA3AF"/><rect x="200" y="306" width="80" height="63" rx="4" fill="#FFFFFF" stroke="#9CA3AF"/><rect x="280" y="306" width="80" height="63" rx="4" fill="#FFFFFF" stroke="#9CA3AF"/><text x="288" y="325" font-size="12">1</text><text x="288" y="347" font-size="10">稼働 7.5h</text><rect x="360" y="306" width="80" height="63" rx="4" fill="#FFFFFF" stroke="#9CA3AF"/><text x="368" y="325" font-size="12">2</text><text x="368" y="347" font-size="10">稼働 7.5h</text><rect x="440" y="306" width="80" height="63" rx="4" fill="#FFFFFF" stroke="#9CA3AF"/><text x="448" y="325" font-size="12">3</text><text x="448" y="347" font-size="10">休み</text><rect x="520" y="306" width="80" height="63" rx="4" fill="#FFFFFF" stroke="#9CA3AF"/><text x="528" y="325" font-size="12">4</text><text x="528" y="347" font-size="10">休み</text><rect x="40" y="369" width="80" height="63" rx="4" fill="#FFFFFF" stroke="#9CA3AF"/><text x="48" y="388" font-size="12">5</text><text x="48" y="410" font-size="10">稼働 7.5h</text><rect x="120" y="369" width="80" height="63" rx="4" fill="#FFFFFF" stroke="#9CA3AF"/><text x="128" y="388" font-size="12">6</text><text x="128" y="410" font-size="10">稼働 7.5h</text><rect x="200" y="369" width="80" height="63" rx="4" fill="#FFFFFF" stroke="#9CA3AF"/><text x="208" y="388" font-size="12">7</text><text x="208" y="410" font-size="10">稼働 7.5h</text><rect x="280" y="369" width="80" height="63" rx="4" fill="#FFFFFF" stroke="#9CA3AF"/><text x="288" y="388" font-size="12">8</text><text x="288" y="410" font-size="10">稼働 7.5h</text><rect x="360" y="369" width="80" height="63" rx="4" fill="#FFFFFF" stroke="#9CA3AF"/><text x="368" y="388" font-size="12">9</text><text x="368" y="410" font-size="10">稼働 7.5h</text><rect x="440" y="369" width="80" height="63" rx="4" fill="#FFFFFF" stroke="#9CA3AF"/><text x="448" y="388" font-size="12">10</text><text x="448" y="410" font-size="10">休み</text><rect x="520" y="369" width="80" height="63" rx="4" fill="#FFFFFF" stroke="#9CA3AF"/><text x="528" y="388" font-size="12">11</text><text x="528" y="410" font-size="10">休み</text><rect x="40" y="432" width="80" height="63" rx="4" fill="#F3F4F6" stroke="#9CA3AF"/><text x="48" y="451" font-size="12">12</text><text x="48" y="473" font-size="10">稼働 4h</text><rect x="120" y="432" width="80" height="63" rx="4" fill="#FFFFFF" stroke="#9CA3AF"/><text x="128" y="451" font-size="12">13</text><text x="128" y="473" font-size="10">稼働 7.5h</text><rect x="200" y="432" width="80" height="63" rx="4" fill="#FFFFFF" stroke="#9CA3AF"/><text x="208" y="451" font-size="12">14</text><text x="208" y="473" font-size="10">稼働 7.5h</text><rect x="280" y="432" width="80" height="63" rx="4" fill="#FFFFFF" stroke="#9CA3AF"/><text x="288" y="451" font-size="12">15</text><text x="288" y="473" font-size="10">稼働 7.5h</text><rect x="360" y="432" width="80" height="63" rx="4" fill="#FFFFFF" stroke="#9CA3AF"/><text x="368" y="451" font-size="12">16</text><text x="368" y="473" font-size="10">稼働 7.5h</text><rect x="440" y="432" width="80" height="63" rx="4" fill="#FFFFFF" stroke="#9CA3AF"/><text x="448" y="451" font-size="12">17</text><text x="448" y="473" font-size="10">休み</text><rect x="520" y="432" width="80" height="63" rx="4" fill="#FFFFFF" stroke="#9CA3AF"/><text x="528" y="451" font-size="12">18</text><text x="528" y="473" font-size="10">休み</text><rect x="40" y="495" width="80" height="63" rx="4" fill="#FFFFFF" stroke="#9CA3AF"/><text x="48" y="514" font-size="12">19</text><text x="48" y="536" font-size="10">稼働 7.5h</text><rect x="120" y="495" width="80" height="63" rx="4" fill="#FFFFFF" stroke="#9CA3AF"/><text x="128" y="514" font-size="12">20</text><text x="128" y="536" font-size="10">稼働 7.5h</text><rect x="200" y="495" width="80" height="63" rx="4" fill="#FFFFFF" stroke="#9CA3AF"/><text x="208" y="514" font-size="12">21</text><text x="208" y="536" font-size="10">稼働 7.5h</text><rect x="280" y="495" width="80" height="63" rx="4" fill="#FFFFFF" stroke="#9CA3AF"/><text x="288" y="514" font-size="12">22</text><text x="288" y="536" font-size="10">稼働 7.5h</text><rect x="360" y="495" width="80" height="63" rx="4" fill="#FFFFFF" stroke="#9CA3AF"/><text x="368" y="514" font-size="12">23</text><text x="368" y="536" font-size="10">稼働 7.5h</text><rect x="440" y="495" width="80" height="63" rx="4" fill="#FFFFFF" stroke="#9CA3AF"/><text x="448" y="514" font-size="12">24</text><text x="448" y="536" font-size="10">休み</text><rect x="520" y="495" width="80" height="63" rx="4" fill="#FFFFFF" stroke="#9CA3AF"/><text x="528" y="514" font-size="12">25</text><text x="528" y="536" font-size="10">休み</text><rect x="40" y="558" width="80" height="63" rx="4" fill="#FFFFFF" stroke="#9CA3AF"/><text x="48" y="577" font-size="12">26</text><text x="48" y="599" font-size="10">稼働 7.5h</text><rect x="120" y="558" width="80" height="63" rx="4" fill="#FFFFFF" stroke="#9CA3AF"/><text x="128" y="577" font-size="12">27</text><text x="128" y="599" font-size="10">稼働 7.5h</text><rect x="200" y="558" width="80" height="63" rx="4" fill="#FFFFFF" stroke="#9CA3AF"/><text x="208" y="577" font-size="12">28</text><text x="208" y="599" font-size="10">稼働 7.5h</text><rect x="280" y="558" width="80" height="63" rx="4" fill="#FFFFFF" stroke="#9CA3AF"/><text x="288" y="577" font-size="12">29</text><text x="288" y="599" font-size="10">稼働 7.5h</text><rect x="360" y="558" width="80" height="63" rx="4" fill="#FFFFFF" stroke="#9CA3AF"/><text x="368" y="577" font-size="12">30</text><text x="368" y="599" font-size="10">稼働 7.5h</text><rect x="440" y="558" width="80" height="63" rx="4" fill="#FFFFFF" stroke="#9CA3AF"/><text x="448" y="577" font-size="12">31</text><text x="448" y="599" font-size="10">休み</text><rect x="520" y="558" width="80" height="63" rx="4" fill="#FFFFFF" stroke="#9CA3AF"/><rect x="630" y="267" width="290" height="205" rx="4" fill="#F3F4F6" stroke="#9CA3AF"/><g data-item="6"><rect x="606" y="278" width="22" height="22" rx="7" fill="#C2410C"/><text x="617" y="293" text-anchor="middle" fill="white" font-weight="bold">6</text></g><text x="645" y="292" font-size="12">選択日：2026-10-12</text><text x="645" y="320" font-size="12">稼働：4時間</text><text x="645" y="348" font-size="12">適用元：ライン日付例外</text><text x="645" y="376" font-size="12">ライン理由：臨時稼働</text><text x="645" y="404" font-size="12">下位：工場例外「保守休業」</text><text x="645" y="432" font-size="12">過去日は参照のみ</text><rect x="630" y="495" width="290" height="155" rx="4" fill="#F3F4F6" stroke="#9CA3AF"/><g data-item="7"><rect x="606" y="506" width="22" height="22" rx="7" fill="#C2410C"/><text x="617" y="521" text-anchor="middle" fill="white" font-weight="bold">7</text></g><rect x="647" y="511" width="250" height="34" rx="4" fill="#FFFFFF" stroke="#9CA3AF"/><text x="656" y="533" font-size="12">週間規則を編集</text><rect x="647" y="557" width="250" height="34" rx="4" fill="#FFFFFF" stroke="#9CA3AF"/><text x="656" y="579" font-size="12">日付例外を編集</text><text x="647" y="628" font-size="12">編集可否はサーバーの工場日付で判定</text><rect x="40" y="690" width="880" height="85" rx="4" fill="#F3F4F6" stroke="#9CA3AF"/><g data-item="8"><rect x="10" y="701" width="22" height="22" rx="7" fill="#C2410C"/><text x="21" y="716" text-anchor="middle" fill="white" font-weight="bold">8</text></g><text x="55" y="713" font-size="12">日別能力参照：選択ライン L-001</text><rect x="55" y="726" width="330" height="34" rx="4" fill="#FFFFFF" stroke="#9CA3AF"/><text x="64" y="748" font-size="12">製品：P-1001 — ブレーキキャリパー</text><rect x="397" y="726" width="200" height="34" rx="4" fill="#FFFFFF" stroke="#9CA3AF"/><text x="406" y="748" font-size="12">日付：2026-10-12</text><rect x="610" y="726" width="190" height="34" rx="4" fill="#FFFFFF" stroke="#9CA3AF"/><text x="619" y="748" font-size="12">能力を確認</text><rect x="40" y="798" width="880" height="109" rx="4" fill="#F3F4F6" stroke="#9CA3AF"/><g data-item="9"><rect x="10" y="809" width="22" height="22" rx="7" fill="#C2410C"/><text x="21" y="824" text-anchor="middle" fill="white" font-weight="bold">9</text></g><text x="55" y="827" font-size="21">参考能力：1,920 個</text><text x="55" y="855" font-size="12">適用時間 4時間 × 60 ÷ 0.125分／個</text><text x="55" y="884" font-size="12">現在の設定による参考値です。予約・実績・過去能力ではありません。</text><text x="40" y="946" font-size="11">別状態：週間／日付エディター、中央確認、読込・空・エラー・競合・結果不明。詳細は本文の各定義。</text></g></svg>