<svg xmlns="http://www.w3.org/2000/svg" viewBox="0 0 960 584" width="960" height="584" font-family="Yu Gothic UI, Meiryo, Hiragino Sans, Noto Sans JP, Segoe UI, sans-serif" role="img" aria-label="SCR-002 Production order list — CSV export additions — PC layout">
  <title>SCR-002 Production order list — CSV export additions — PC layout</title>
  <rect x="0.5" y="0.5" width="959" height="583" rx="8" fill="#fff" stroke="#9CA3AF"/>
  <rect x="1" y="1" width="958" height="52" rx="7" fill="#E5E7EB" stroke="#E5E7EB" stroke-width="1"/>
  <rect x="11.0" y="18" width="18" height="18" rx="9" fill="#C2410C"/>
  <text x="20" y="31" font-size="10" font-weight="700" fill="#fff" text-anchor="middle">1</text>
  <text x="34" y="31" font-size="14" font-weight="700" fill="#374151" text-anchor="start">ProductionManagementAI</text>
  <text x="404" y="31" font-size="12" font-weight="700" fill="#374151" text-anchor="middle">製造指示一覧</text>
  <text x="824" y="31" font-size="12" font-weight="400" fill="#374151" text-anchor="start">Admin · ログアウト</text>
  <text x="54" y="84" font-size="12" font-weight="400" fill="#6B7280" text-anchor="start">ホーム  ›  製造指示一覧</text>
  <text x="54" y="119" font-size="20" font-weight="700" fill="#374151" text-anchor="start">製造指示一覧</text>
  <rect x="780" y="97" width="160" height="30" rx="4" fill="#4B5563" stroke="#4B5563" stroke-width="1"/>
  <text x="860.0" y="116.0" font-size="12" font-weight="600" fill="#fff" text-anchor="middle">+ 新規製造指示</text>
  <rect x="20" y="140" width="920" height="70" rx="4" fill="#fff" stroke="#9CA3AF" stroke-width="1" stroke-dasharray="4 3"/>
  <rect x="26.0" y="166" width="36" height="18" rx="9" fill="#C2410C"/>
  <text x="44" y="179" font-size="10" font-weight="700" fill="#fff" text-anchor="middle">7–13</text>
  <text x="70" y="179" font-size="12" font-weight="400" fill="#6B7280" text-anchor="start">絞り込み（ステータス・製品・納期・指示番号）— 002_BD のとおり、変更なし</text>
  <rect x="29.0" y="229" width="22" height="18" rx="9" fill="#C2410C"/>
  <text x="40" y="242" font-size="10" font-weight="700" fill="#fff" text-anchor="middle">14</text>
  <text x="56" y="242" font-size="12" font-weight="600" fill="#374151" text-anchor="start">87件中 1〜20件</text>
  <rect x="600.0" y="229" width="22" height="18" rx="9" fill="#C2410C"/>
  <text x="611" y="242" font-size="10" font-weight="700" fill="#fff" text-anchor="middle">28</text>
  <rect x="626" y="224" width="112" height="30" rx="4" fill="#fff" stroke="#9CA3AF" stroke-width="1"/>
  <path d="M654 233 v8 m-3.5 -3.5 l3.5 3.5 l3.5 -3.5 M648 243 v2 h12 v-2" fill="none" stroke="#374151" stroke-width="1.4"/>
  <text x="700" y="243" font-size="12" font-weight="600" fill="#374151" text-anchor="middle">CSV出力</text>
  <rect x="749.0" y="229" width="22" height="18" rx="9" fill="#C2410C"/>
  <text x="760" y="242" font-size="10" font-weight="700" fill="#fff" text-anchor="middle">15</text>
  <text x="776" y="242" font-size="12" font-weight="400" fill="#374151" text-anchor="start">表示件数</text>
  <rect x="836" y="226" width="104" height="26" rx="4" fill="#fff" stroke="#9CA3AF" stroke-width="1"/>
  <text x="845" y="243" font-size="12" font-weight="400" fill="#6B7280" text-anchor="start">20</text>
  <text x="928" y="243" font-size="12" font-weight="400" fill="#6B7280" text-anchor="middle">▾</text>
  <rect x="600.0" y="259" width="22" height="18" rx="9" fill="#C2410C"/>
  <text x="611" y="272" font-size="10" font-weight="700" fill="#fff" text-anchor="middle">30</text>
  <text x="626" y="272" font-size="11" font-weight="400" fill="#6B7280" text-anchor="start">検索した絞り込み条件の87件を出力します。</text>
  <rect x="29.0" y="293" width="22" height="18" rx="9" fill="#C2410C"/>
  <text x="40" y="306" font-size="10" font-weight="700" fill="#fff" text-anchor="middle">29</text>
  <rect x="56" y="288" width="884" height="28" rx="4" fill="#F3F4F6" stroke="#9CA3AF" stroke-width="1"/>
  <text x="68" y="307" font-size="12" font-weight="400" fill="#374151" text-anchor="start">CSVファイルを出力しました（87件）。</text>
  <g transform="translate(0,24)">
  <rect x="20" y="306" width="920" height="34" rx="4" fill="#F3F4F6" stroke="#9CA3AF" stroke-width="1"/>
  <rect x="29.0" y="314" width="22" height="18" rx="9" fill="#C2410C"/>
  <text x="40" y="327" font-size="10" font-weight="700" fill="#fff" text-anchor="middle">16</text>
  <text x="56" y="327" font-size="12" font-weight="700" fill="#374151" text-anchor="start">指示番号</text>
  <text x="170" y="327" font-size="12" font-weight="700" fill="#374151" text-anchor="start">製品</text>
  <text x="380" y="327" font-size="12" font-weight="700" fill="#374151" text-anchor="start">数量</text>
  <text x="460" y="327" font-size="12" font-weight="700" fill="#374151" text-anchor="start">納期 ▲</text>
  <text x="600" y="327" font-size="12" font-weight="700" fill="#374151" text-anchor="start">ステータス</text>
  <text x="720" y="327" font-size="12" font-weight="700" fill="#374151" text-anchor="start">更新日時</text>
  <text x="56" y="362" font-size="12" font-weight="600" fill="#1D4ED8" text-anchor="start">PO-2026-00001</text>
  <text x="170" y="362" font-size="12" font-weight="400" fill="#374151" text-anchor="start">P-1001 — ブレーキキャリパー</text>
  <text x="380" y="362" font-size="12" font-weight="400" fill="#374151" text-anchor="start">120 個</text>
  <text x="460" y="362" font-size="12" font-weight="400" fill="#374151" text-anchor="start">2026/09/30</text>
  <text x="600" y="362" font-size="12" font-weight="400" fill="#374151" text-anchor="start">下書き</text>
  <text x="720" y="362" font-size="12" font-weight="400" fill="#374151" text-anchor="start">2026/09/20 10:12</text>
  <line x1="20" y1="376" x2="940" y2="376" stroke="#9CA3AF" stroke-width="1"/>
  <text x="56" y="402" font-size="12" font-weight="600" fill="#1D4ED8" text-anchor="start">PO-2026-00002</text>
  <text x="170" y="402" font-size="12" font-weight="400" fill="#374151" text-anchor="start">P-1004 — ドライブシャフト</text>
  <text x="380" y="402" font-size="12" font-weight="400" fill="#374151" text-anchor="start">40 個</text>
  <text x="460" y="402" font-size="12" font-weight="400" fill="#374151" text-anchor="start">2026/09/18</text>
  <text x="600" y="402" font-size="12" font-weight="400" fill="#374151" text-anchor="start">進行中</text>
  <text x="720" y="402" font-size="12" font-weight="400" fill="#374151" text-anchor="start">2026/09/19 16:40</text>
  <line x1="20" y1="416" x2="940" y2="416" stroke="#9CA3AF" stroke-width="1"/>
  <text x="56" y="442" font-size="12" font-weight="600" fill="#1D4ED8" text-anchor="start">PO-2026-00003</text>
  <text x="170" y="442" font-size="12" font-weight="400" fill="#374151" text-anchor="start">P-2002 — 防錆塗料</text>
  <text x="380" y="442" font-size="12" font-weight="400" fill="#374151" text-anchor="start">12.5 kg</text>
  <text x="460" y="442" font-size="12" font-weight="400" fill="#374151" text-anchor="start">2026/10/02</text>
  <text x="600" y="442" font-size="12" font-weight="400" fill="#374151" text-anchor="start">下書き</text>
  <text x="720" y="442" font-size="12" font-weight="400" fill="#374151" text-anchor="start">2026/09/19 11:05</text>
  <line x1="20" y1="456" x2="940" y2="456" stroke="#9CA3AF" stroke-width="1"/>
  <rect x="29.0" y="471" width="22" height="18" rx="9" fill="#C2410C"/>
  <text x="40" y="484" font-size="10" font-weight="700" fill="#fff" text-anchor="middle">23</text>
  <rect x="56" y="466" width="80" height="28" rx="4" fill="#fff" stroke="#9CA3AF" stroke-width="1"/>
  <text x="96.0" y="484.0" font-size="12" font-weight="600" fill="#374151" text-anchor="middle">‹ 前へ</text>
  <text x="186" y="484" font-size="12" font-weight="400" fill="#374151" text-anchor="middle">1 / 5 ページ</text>
  <rect x="236" y="466" width="80" height="28" rx="4" fill="#fff" stroke="#9CA3AF" stroke-width="1"/>
  <text x="276.0" y="484.0" font-size="12" font-weight="600" fill="#374151" text-anchor="middle">次へ ›</text>
  </g>
  <text x="20" y="548" font-size="11" font-weight="400" fill="#6B7280" text-anchor="start" font-style="italic">28 while exporting: 「出力中…」, disabled. 28 is hidden on the empty (24), no-match (25) and loading (26) states.</text>
  <text x="20" y="566" font-size="11" font-weight="400" fill="#6B7280" text-anchor="start" font-style="italic">29 also shows errors (MSG-E024 row limit, MSG-E025 failure, MSG-E020 forbidden) as an alert. Dashed/outlined regions are unchanged (002_BD).</text>
</svg>
