<svg xmlns="http://www.w3.org/2000/svg" viewBox="0 0 390 584" width="390" height="584" font-family="Yu Gothic UI, Meiryo, Hiragino Sans, Noto Sans JP, Segoe UI, sans-serif" role="img" aria-label="SCR-002 Production order list — CSV export additions — SP layout">
  <title>SCR-002 Production order list — CSV export additions — SP layout</title>
  <rect x="0.5" y="0.5" width="389" height="583" rx="8" fill="#fff" stroke="#9CA3AF"/>
  <rect x="1" y="1" width="388" height="48" rx="7" fill="#E5E7EB" stroke="#E5E7EB" stroke-width="1"/>
  <rect x="11.0" y="16" width="18" height="18" rx="9" fill="#C2410C"/>
  <text x="20" y="29" font-size="10" font-weight="700" fill="#fff" text-anchor="middle">1</text>
  <text x="34" y="29" font-size="14" font-weight="700" fill="#374151" text-anchor="start">PMAI</text>
  <rect x="310" y="10" width="66" height="28" rx="4" fill="#fff" stroke="#9CA3AF" stroke-width="1"/>
  <text x="343.0" y="28.0" font-size="12" font-weight="600" fill="#374151" text-anchor="middle">メニュー</text>
  <text x="34" y="76" font-size="12" font-weight="400" fill="#6B7280" text-anchor="start">‹ ホーム</text>
  <text x="34" y="108" font-size="18" font-weight="700" fill="#374151" text-anchor="start">製造指示一覧</text>
  <rect x="36" y="124" width="338" height="30" rx="4" fill="#4B5563" stroke="#4B5563" stroke-width="1"/>
  <text x="205.0" y="143.0" font-size="12" font-weight="600" fill="#fff" text-anchor="middle">+ 新規製造指示</text>
  <rect x="16" y="166" width="358" height="34" rx="4" fill="#fff" stroke="#9CA3AF" stroke-width="1" stroke-dasharray="4 3"/>
  <rect x="14.0" y="174" width="36" height="18" rx="9" fill="#C2410C"/>
  <text x="32" y="187" font-size="10" font-weight="700" fill="#fff" text-anchor="middle">7–13</text>
  <text x="56" y="188" font-size="12" font-weight="400" fill="#6B7280" text-anchor="start">絞り込み (2) — 002_BD のとおり</text>
  <rect x="9.0" y="219" width="22" height="18" rx="9" fill="#C2410C"/>
  <text x="20" y="232" font-size="10" font-weight="700" fill="#fff" text-anchor="middle">14</text>
  <text x="36" y="232" font-size="12" font-weight="600" fill="#374151" text-anchor="start">87件中 1〜20件</text>
  <rect x="185.0" y="219" width="22" height="18" rx="9" fill="#C2410C"/>
  <text x="196" y="232" font-size="10" font-weight="700" fill="#fff" text-anchor="middle">15</text>
  <text x="212" y="232" font-size="12" font-weight="400" fill="#374151" text-anchor="start">表示件数</text>
  <rect x="270" y="216" width="104" height="26" rx="4" fill="#fff" stroke="#9CA3AF" stroke-width="1"/>
  <text x="279" y="233" font-size="12" font-weight="400" fill="#6B7280" text-anchor="start">20</text>
  <text x="362" y="233" font-size="12" font-weight="400" fill="#6B7280" text-anchor="middle">▾</text>
  <rect x="9.0" y="265" width="22" height="18" rx="9" fill="#C2410C"/>
  <text x="20" y="278" font-size="10" font-weight="700" fill="#fff" text-anchor="middle">28</text>
  <rect x="36" y="252" width="338" height="44" rx="4" fill="#fff" stroke="#9CA3AF" stroke-width="1"/>
  <path d="M172 268 v8 m-3.5 -3.5 l3.5 3.5 l3.5 -3.5 M166 278 v2 h12 v-2" fill="none" stroke="#374151" stroke-width="1.4"/>
  <text x="212" y="279" font-size="12" font-weight="600" fill="#374151" text-anchor="middle">CSV出力</text>
  <rect x="9.0" y="305" width="22" height="18" rx="9" fill="#C2410C"/>
  <text x="20" y="318" font-size="10" font-weight="700" fill="#fff" text-anchor="middle">30</text>
  <text x="36" y="318" font-size="11" font-weight="400" fill="#6B7280" text-anchor="start">検索した絞り込み条件の87件を出力します。</text>
  <g transform="translate(0,24)">
  <rect x="9.0" y="313" width="22" height="18" rx="9" fill="#C2410C"/>
  <text x="20" y="326" font-size="10" font-weight="700" fill="#fff" text-anchor="middle">29</text>
  <rect x="36" y="308" width="338" height="28" rx="4" fill="#F3F4F6" stroke="#9CA3AF" stroke-width="1"/>
  <text x="46" y="327" font-size="12" font-weight="400" fill="#374151" text-anchor="start">CSVファイルを出力しました（87件）。</text>
  <rect x="9.0" y="353" width="22" height="18" rx="9" fill="#C2410C"/>
  <text x="20" y="366" font-size="10" font-weight="700" fill="#fff" text-anchor="middle">16</text>
  <text x="36" y="366" font-size="12" font-weight="400" fill="#374151" text-anchor="start">並べ替え</text>
  <rect x="90" y="350" width="284" height="26" rx="4" fill="#fff" stroke="#9CA3AF" stroke-width="1"/>
  <text x="99" y="367" font-size="12" font-weight="400" fill="#6B7280" text-anchor="start">納期 ▲</text>
  <rect x="16" y="390" width="358" height="100" rx="4" fill="#fff" stroke="#9CA3AF" stroke-width="1"/>
  <rect x="19.0" y="399" width="22" height="18" rx="9" fill="#C2410C"/>
  <text x="30" y="412" font-size="10" font-weight="700" fill="#fff" text-anchor="middle">22</text>
  <text x="46" y="412" font-size="13" font-weight="700" fill="#1D4ED8" text-anchor="start">PO-2026-00001</text>
  <text x="46" y="432" font-size="12" font-weight="400" fill="#374151" text-anchor="start">P-1001 — ブレーキキャリパー</text>
  <text x="46" y="450" font-size="12" font-weight="400" fill="#374151" text-anchor="start">数量 120 個 · 納期 2026/09/30</text>
  <text x="46" y="468" font-size="12" font-weight="400" fill="#6B7280" text-anchor="start">下書き · 更新 2026/09/20 10:12</text>
  <text x="195" y="512" font-size="11" font-weight="400" fill="#6B7280" text-anchor="middle" font-style="italic">… cards and paging as 002_BD</text>
  </g>
  <text x="16" y="570" font-size="11" font-weight="400" fill="#6B7280" text-anchor="start" font-style="italic">28: full width, ≥ 44 px; 「出力中…」 while exporting.</text>
</svg>
